<mxfile host="app.diagrams.net" modified="2021-08-21T17:59:14.326Z" agent="5.0 (Windows NT 10.0; Win64; x64) AppleWebKit/537.36 (KHTML, like Gecko) Chrome/92.0.4515.131 Safari/537.36 Edg/92.0.902.73" etag="fxC76xcyDsGPS5-QN3Yn" version="14.8.6" type="github">
  <diagram id="prtHgNgQTEPvFCAcTncT" name="Page-1">
    <mxGraphModel dx="496" dy="297" grid="1" gridSize="10" guides="1" tooltips="1" connect="1" arrows="1" fold="1" page="1" pageScale="1" pageWidth="827" pageHeight="1169" background="#E3EEFF" math="0" shadow="1">
      <root>
        <mxCell id="0" />
        <mxCell id="1" parent="0" />
        <mxCell id="e9PipD7iMlRYwRgLzmbf-11" value="২২ আগস্ট - ১০ সেপ্টেম্বর" style="html=1;shape=mxgraph.infographic.ribbonBackFolded;dx=25;dy=15;notch=15;strokeColor=none;align=center;verticalAlign=middle;fontColor=#ffffff;fontSize=14;fontStyle=1;spacingTop=10;fillColor=#FF3333;" vertex="1" parent="1">
          <mxGeometry x="302" y="87" width="210" height="55" as="geometry" />
        </mxCell>
        <mxCell id="e9PipD7iMlRYwRgLzmbf-13" value="জাভাস্ক্রিপ্ট কোর্স সম্পূর্ণ" style="shape=rect;whiteSpace=wrap;html=1;shadow=0;strokeColor=none;fillColor=#64BBE2;arcSize=30;fontSize=14;spacingLeft=42;fontStyle=1;fontColor=#FFFFFF;align=left;" vertex="1" parent="1">
          <mxGeometry x="270" y="172" width="290" height="40" as="geometry" />
        </mxCell>
        <mxCell id="e9PipD7iMlRYwRgLzmbf-14" value="১" style="shape=ellipse;perimeter=ellipsePerimeter;fontSize=22;fontStyle=1;shadow=0;strokeColor=#ffffff;fillColor=#10739E;strokeWidth=4;fontColor=#ffffff;align=center;" vertex="1" parent="1">
          <mxGeometry x="240" y="162" width="60" height="60" as="geometry" />
        </mxCell>
        <mxCell id="e9PipD7iMlRYwRgLzmbf-15" value="রিয়েক্ট নেটিভ এনিমেশন - ১০ ঘন্টা" style="shape=rect;whiteSpace=wrap;html=1;shadow=0;strokeColor=none;fillColor=#F8C382;arcSize=30;fontSize=14;spacingLeft=42;fontStyle=1;fontColor=#FFFFFF;align=left;" vertex="1" parent="1">
          <mxGeometry x="270" y="238" width="290" height="40" as="geometry" />
        </mxCell>
        <mxCell id="e9PipD7iMlRYwRgLzmbf-16" value="২" style="shape=ellipse;perimeter=ellipsePerimeter;fontSize=22;fontStyle=1;shadow=0;strokeColor=#ffffff;fillColor=#F2931E;strokeWidth=4;fontColor=#ffffff;align=center;" vertex="1" parent="1">
          <mxGeometry x="240" y="228" width="60" height="60" as="geometry" />
        </mxCell>
        <mxCell id="e9PipD7iMlRYwRgLzmbf-17" value="ফায়ারবেজ সম্পূর্ণ&amp;nbsp;" style="shape=rect;whiteSpace=wrap;html=1;shadow=0;strokeColor=none;fillColor=#F08E81;arcSize=30;fontSize=14;spacingLeft=42;fontStyle=1;fontColor=#FFFFFF;align=left;" vertex="1" parent="1">
          <mxGeometry x="270" y="303" width="290" height="40" as="geometry" />
        </mxCell>
        <mxCell id="e9PipD7iMlRYwRgLzmbf-18" value="৩" style="shape=ellipse;perimeter=ellipsePerimeter;fontSize=22;fontStyle=1;shadow=0;strokeColor=#ffffff;fillColor=#AE4132;strokeWidth=4;fontColor=#ffffff;align=center;" vertex="1" parent="1">
          <mxGeometry x="240" y="293" width="60" height="60" as="geometry" />
        </mxCell>
        <mxCell id="e9PipD7iMlRYwRgLzmbf-19" value="ফেইস এপিআই - ১০ ঘন্টা&amp;nbsp;" style="shape=rect;whiteSpace=wrap;html=1;shadow=0;strokeColor=none;fillColor=#5D7F99;arcSize=30;fontSize=14;spacingLeft=42;fontStyle=1;fontColor=#FFFFFF;align=left;" vertex="1" parent="1">
          <mxGeometry x="270" y="368" width="290" height="40" as="geometry" />
        </mxCell>
        <mxCell id="e9PipD7iMlRYwRgLzmbf-20" value="৪" style="shape=ellipse;perimeter=ellipsePerimeter;fontSize=22;fontStyle=1;shadow=0;strokeColor=#ffffff;fillColor=#23445D;strokeWidth=4;fontColor=#ffffff;align=center;" vertex="1" parent="1">
          <mxGeometry x="240" y="358" width="60" height="60" as="geometry" />
        </mxCell>
        <mxCell id="e9PipD7iMlRYwRgLzmbf-23" value="দৈনিক রুটিন" style="shape=step;perimeter=stepPerimeter;whiteSpace=wrap;html=1;fixedSize=1;size=10;fillColor=#10739E;strokeColor=none;fontSize=17;fontStyle=1;align=center;" vertex="1" parent="1">
          <mxGeometry x="290" y="450" width="220" height="30" as="geometry" />
        </mxCell>
        <mxCell id="e9PipD7iMlRYwRgLzmbf-24" value="&lt;font style=&quot;font-size: 14px&quot;&gt;১/ জব&amp;nbsp; &amp;nbsp; &amp;nbsp; &amp;nbsp; &amp;nbsp; &amp;nbsp;- ৮ ঘন্টা&amp;nbsp;&lt;br&gt;২/ পড়ালেখা&amp;nbsp; - ৪ ঘন্টা&lt;br&gt;৩/ ঘুম&amp;nbsp; &amp;nbsp; &amp;nbsp; &amp;nbsp; &amp;nbsp; &amp;nbsp;- ৭ ঘন্টা&amp;nbsp;&lt;br&gt;৪/ ব্যায়াম&amp;nbsp; &amp;nbsp; &amp;nbsp; - ৩০ মিনিট&lt;br&gt;৫/ অন্যান্য&amp;nbsp; &amp;nbsp; - ৪ ঘন্টা ৩০ মিনিট&lt;/font&gt;" style="shape=rect;fillColor=#B1DDF0;strokeColor=none;fontSize=12;html=1;whiteSpace=wrap;align=left;verticalAlign=top;spacing=5;" vertex="1" parent="1">
          <mxGeometry x="290" y="500" width="220" height="100" as="geometry" />
        </mxCell>
      </root>
    </mxGraphModel>
  </diagram>
</mxfile>
